Coordinates
version=1
nRows=32
nColumns=12
inDegrees=yes

Units are S.I. units (second, meters, Newtons, ...)
Angles are in degrees

endheader
time	SC_y	SC_z	SC_x	AC_y	AC_z	AC_x	GH_y	GH_z	GH_yy	EL_x	PS_y
       0.0              -56.62          28.04          35.47          58.62         -1.882         -19.69          90.27          25.72          21.21          113.4          33.32
   0.01688              -56.62          28.03          35.47          58.62         -1.882         -19.69          90.24          25.73          21.22          113.3          33.33
   0.03377              -56.62          28.03          35.46          58.62         -1.882         -19.68          90.21          25.74          21.22          113.3          33.35
   0.05065              -56.62          28.03          35.46          58.62         -1.883         -19.68          90.17          25.75          21.23          113.3          33.36
   0.06753              -56.62          28.02          35.45          58.62         -1.883         -19.68          90.14          25.76          21.24          113.3          33.37
   0.08442              -56.62          28.02          35.45          58.62         -1.884         -19.68           90.1          25.77          21.25          113.3          33.39
    0.1013              -56.62          28.01          35.44          58.62         -1.884         -19.68          90.05          25.78          21.26          113.3           33.4
    0.1182              -56.62           28.0          35.44          58.61         -1.884         -19.68          90.01          25.79          21.27          113.3          33.42
    0.1351              -56.62           28.0          35.43          58.61         -1.885         -19.68          89.96           25.8          21.28          113.3          33.44
     0.152              -56.62          27.99          35.42          58.61         -1.885         -19.68          89.91          25.81          21.29          113.3          33.46
    0.1688              -56.62          27.99          35.42          58.61         -1.886         -19.68          89.85          25.83           21.3          113.3          33.48
    0.1857              -56.61          27.98          35.41          58.61         -1.886         -19.68          89.79          25.84          21.31          113.3           33.5
    0.2026              -56.61          27.97           35.4           58.6         -1.887         -19.68          89.73          25.86          21.33          113.2          33.52
    0.2195              -56.61          27.96          35.39           58.6         -1.888         -19.68          89.66          25.88          21.34          113.2          33.55
    0.2364              -56.61          27.95          35.38           58.6         -1.888         -19.68          89.58           25.9          21.36          113.2          33.58
    0.2533              -56.61          27.94          35.37           58.6         -1.889         -19.67           89.5          25.92          21.38          113.2          33.61
    0.2701              -56.61          27.93          35.36          58.59          -1.89         -19.67          89.41          25.94          21.39          113.2          33.64
     0.287              -56.61          27.92          35.35          58.59         -1.891         -19.67          89.31          25.97          21.42          113.2          33.68
    0.3039               -56.6          27.91          35.33          58.59         -1.892         -19.67           89.2           26.0          21.44          113.1          33.72
    0.3208               -56.6          27.89          35.32          58.58         -1.893         -19.67          89.09          26.03          21.46          113.1          33.76
    0.3377               -56.6          27.88           35.3          58.58         -1.894         -19.67          88.96          26.06          21.49          113.1          33.81
    0.3546               -56.6          27.86          35.28          58.57         -1.896         -19.66          88.82           26.1          21.52          113.1          33.86
    0.3714               -56.6          27.84          35.26          58.57         -1.897         -19.66          88.66          26.14          21.55          113.0          33.91
    0.3883              -56.59          27.82          35.24          58.56         -1.899         -19.66          88.49          26.18          21.59          113.0          33.98
    0.4052              -56.59           27.8          35.22          58.56         -1.901         -19.66           88.3          26.23          21.63          113.0          34.05
    0.4221              -56.59          27.77          35.19          58.55         -1.903         -19.65          88.08          26.29          21.68          112.9          34.13
     0.439              -56.58          27.74          35.16          58.54         -1.905         -19.65          87.84          26.35          21.73          112.9          34.22
    0.4559              -56.58          27.71          35.12          58.53         -1.907         -19.64          87.57          26.42          21.79          112.8          34.31
    0.4727              -56.57          27.67          35.08          58.52          -1.91         -19.64          87.27           26.5          21.85          112.8          34.43
    0.4896              -56.57          27.63          35.04          58.51         -1.914         -19.63          86.92          26.59          21.93          112.7          34.55
    0.5065              -56.56          27.58          34.99          58.49         -1.917         -19.63          86.53          26.69          22.01          112.6           34.7
    0.5234              -56.55          27.52          34.93          58.48         -1.922         -19.62          86.08           26.8          22.11          112.5          34.86
